<svg xmlns="http://www.w3.org/2000/svg" viewBox="40 40 120 120" role="img" aria-label="Veterinaria Acevedo">
  <circle cx="100" cy="100" r="60" fill="#042c53"/>
  <g fill="#ffffff">
    <ellipse cx="75.6" cy="80.2" rx="8.7" ry="12.8" transform="rotate(-30 75.6 80.2)"/>
    <ellipse cx="90.9" cy="67" rx="8.9" ry="14.2" transform="rotate(-10 90.9 67)"/>
    <ellipse cx="109.1" cy="67" rx="8.9" ry="14.2" transform="rotate(10 109.1 67)"/>
    <ellipse cx="124.4" cy="80.2" rx="8.7" ry="12.8" transform="rotate(30 124.4 80.2)"/>
  </g>
  <g fill="none" stroke="#ffffff" stroke-width="7" stroke-linecap="round" stroke-linejoin="round">
    <path d="M92.9 89C84 95 73 103 72 112 71 122 77 130 85 127 91 125 96 124 100 121 104 124 109 125 115 127 123 130 129 122 128 112 127 103 116 95 107.1 88"/>
    <path d="M100 126C103 140 112 150 122 148 130 146 135.5 140 135.5 135"/>
  </g>
  <g fill="#ffffff"><circle cx="92.9" cy="89" r="4.8"/><circle cx="107.1" cy="88" r="4.8"/></g>
  <circle cx="135.5" cy="129.5" r="5.6" fill="none" stroke="#ffffff" stroke-width="4.2"/>
</svg>
